<svg version="1.1" id="Layer_1" xmlns="http://www.w3.org/2000/svg" xmlns:xlink="http://www.w3.org/1999/xlink" x="0px" y="0px"
	 width="100%" viewBox="0 0 1200 600" enable-background="new 0 0 1200 600" xml:space="preserve">
<path fill="#FFFFFF" opacity="1.000000" stroke="none" 
	d="
M916.000000,601.000000 
	C610.666687,601.000000 305.833374,601.000000 1.000041,601.000000 
	C1.000027,401.000031 1.000027,201.000061 1.000014,1.000068 
	C400.999969,1.000045 800.999939,1.000045 1201.000000,1.000023 
	C1201.000000,200.999939 1201.000000,400.999878 1201.000000,600.999878 
	C1106.166626,601.000000 1011.333313,601.000000 916.000000,601.000000 
M912.915100,332.500000 
	C912.915100,303.754608 912.915100,275.009186 912.915100,246.373138 
	C895.048828,246.373138 877.975708,246.373138 860.717468,246.373138 
	C860.717468,249.555618 860.717529,252.354950 860.717529,255.154282 
	C860.718140,308.977264 860.714722,362.800232 860.721313,416.623199 
	C860.723755,436.716919 862.976196,456.508881 869.087036,475.725494 
	C879.656677,508.963593 900.453003,532.235413 934.830872,541.524536 
	C957.040649,547.525757 979.654480,547.720276 1002.170288,543.283264 
	C1035.626709,536.690186 1058.854736,517.427002 1071.535034,485.705719 
	C1080.050537,464.403259 1083.621826,442.013550 1083.796509,419.285492 
	C1084.226685,363.299561 1083.947021,307.308167 1083.938721,251.318970 
	C1083.938477,249.710144 1083.779541,248.101349 1083.688354,246.374161 
	C1066.716431,246.374161 1050.178711,246.374161 1033.325928,246.374161 
	C1033.325928,248.230835 1033.326050,249.707001 1033.326050,251.183151 
	C1033.326172,304.839478 1033.314087,358.495819 1033.334595,412.152161 
	C1033.340210,426.669952 1032.779907,441.126404 1028.949829,455.242432 
	C1024.589478,471.312988 1017.320618,485.417908 1001.920532,493.688110 
	C988.394348,500.951965 973.877991,501.520325 959.140686,499.140198 
	C942.042297,496.378693 930.153809,486.590546 922.802917,471.072784 
	C915.590332,455.847046 913.323608,439.539093 913.129211,422.980347 
	C912.779175,393.156830 912.957458,363.327118 912.915100,332.500000 
M201.676270,486.251465 
	C211.570221,465.271545 221.464157,444.291656 231.695557,422.596191 
	C232.794998,424.619263 233.590210,426.010010 234.319275,427.434601 
	C253.052994,464.040894 271.825989,500.627350 290.419250,537.304932 
	C291.891724,540.209534 293.566162,540.960571 296.565033,540.937866 
	C313.061737,540.813354 329.559814,540.881104 346.057404,540.852661 
	C347.291626,540.850525 348.525421,540.612793 350.211182,540.437683 
	C349.490448,538.935669 349.060669,537.897461 348.515320,536.924011 
	C322.240021,490.019836 295.959442,443.118622 269.659363,396.228363 
	C268.021942,393.309021 266.718292,390.912506 268.774506,387.164948 
	C286.870331,354.184174 304.681274,321.047058 322.571838,287.953674 
	C329.988953,274.233795 337.394531,260.507721 344.999451,246.424973 
	C343.897369,246.208176 343.301636,245.989044 342.705719,245.988571 
	C325.875122,245.975311 309.043549,245.907211 292.215759,246.127716 
	C290.789124,246.146408 288.731934,247.811707 288.071228,249.227173 
	C272.091461,283.460602 256.264435,317.765320 240.397095,352.051300 
	C239.746475,353.457123 238.972092,354.805664 237.750259,357.150146 
	C236.021667,353.966461 234.786316,351.853088 233.699753,349.665802 
	C217.256668,316.565460 200.800354,283.471558 184.457138,250.321945 
	C182.873779,247.110321 181.016769,245.839767 177.257736,245.899246 
	C161.097580,246.154938 144.931000,245.999161 128.766800,246.017197 
	C127.359734,246.018768 125.952866,246.194946 124.192131,246.313934 
	C124.594223,247.382645 124.747902,248.010635 125.048462,248.557968 
	C133.381561,263.733673 141.740967,278.894958 150.072784,294.071350 
	C166.737518,324.426086 183.432541,354.764435 199.934662,385.207367 
	C200.915802,387.017395 201.224960,390.195221 200.297897,391.888611 
	C179.592239,429.710052 158.657455,467.405945 137.793228,505.140656 
	C131.319656,516.848633 124.925797,528.600769 118.198135,540.875061 
	C135.264984,540.875061 151.724884,540.694946 168.175934,540.996826 
	C172.494415,541.076050 174.769867,539.681274 176.622986,535.932983 
	C184.732376,519.530029 193.069092,503.239410 201.676270,486.251465 
M462.887146,542.721497 
	C487.650604,547.773010 512.179504,547.728638 536.249878,539.100098 
	C556.426453,531.867432 573.185303,519.733521 587.448425,503.218292 
	C578.066895,492.188110 568.875244,481.381195 559.590637,470.464996 
	C555.004333,474.566589 551.013428,478.318573 546.832825,481.845825 
	C511.050507,512.036499 450.496521,507.185089 427.204498,454.727936 
	C419.721191,437.874420 416.476410,420.166748 415.625580,401.879730 
	C414.463043,376.892761 417.608459,352.727600 428.830231,330.022247 
	C452.341248,282.451782 510.303223,272.382568 546.848511,305.922668 
	C549.002380,307.899414 551.282410,309.738586 553.732971,311.838165 
	C562.194641,301.593781 570.223572,291.610199 578.584229,281.912659 
	C581.071106,279.028137 581.208740,277.457520 578.395325,274.658722 
	C540.446472,236.906494 485.713135,231.445892 439.503418,253.023758 
	C404.803619,269.227020 382.634033,297.037354 371.037598,333.035248 
	C357.620239,374.685486 357.607941,416.844574 371.662598,458.230164 
	C386.559937,502.097046 416.351288,531.131714 462.887146,542.721497 
M728.299927,540.876282 
	C733.216248,541.724731 734.802246,540.023743 734.789490,534.734314 
	C734.600830,456.592529 734.659485,378.450104 734.659485,300.307861 
	C734.659485,297.178162 734.659485,294.048462 734.659485,290.258453 
	C736.995483,290.258453 738.774719,290.258423 740.554016,290.258453 
	C765.212952,290.258759 789.872559,290.172607 814.530273,290.345673 
	C818.570496,290.374054 820.058228,289.440186 819.926941,285.136658 
	C819.617249,274.982605 819.827759,264.812714 819.827759,254.649216 
	C819.827759,251.890900 819.827698,249.132599 819.827698,246.378418 
	C745.152405,246.378418 671.278198,246.378418 597.005737,246.378418 
	C597.005737,259.567322 597.188049,272.373962 596.904541,285.170319 
	C596.808228,289.517609 598.336365,290.374939 602.344360,290.346222 
	C626.835449,290.170532 651.328430,290.251709 675.820740,290.247375 
	C677.764893,290.247009 679.709045,290.247314 682.297241,290.247314 
	C682.297241,374.099274 682.297241,457.295288 682.297241,540.873657 
	C697.745239,540.873657 712.545898,540.873657 728.299927,540.876282 
M151.003159,101.032623 
	C150.907745,99.817894 150.812332,98.603157 150.634781,96.342690 
	C141.973877,105.102829 133.896683,113.018250 126.182518,121.272926 
	C124.480148,123.094582 123.210213,126.110298 123.187698,128.589310 
	C122.969894,152.581268 123.056236,176.576019 123.075485,200.569962 
	C123.076637,202.003723 123.246834,203.437332 123.341125,204.914322 
	C144.756790,204.914322 165.738800,205.099930 186.712952,204.776443 
	C191.610626,204.700912 196.619797,203.327713 201.339676,201.810944 
	C216.982834,196.783859 226.538284,184.028580 226.667999,167.804337 
	C226.859802,143.811859 227.020599,119.811897 226.625290,95.824501 
	C226.365906,80.084991 219.164124,67.987877 203.901505,62.721764 
	C195.872208,59.951382 187.068054,58.591160 178.548187,58.254566 
	C161.579056,57.584187 144.564575,58.053757 127.568878,58.075768 
	C126.147346,58.077606 124.726051,58.255768 123.415154,58.344528 
	C123.415154,66.759232 123.415154,74.665421 123.415154,82.888603 
	C125.416862,82.888603 127.060699,82.888664 128.704544,82.888588 
	C144.367279,82.887871 160.030060,82.866585 175.692749,82.891953 
	C192.591888,82.919327 198.724823,88.999893 198.747437,105.725838 
	C198.766602,119.888924 198.800095,134.052322 198.725510,148.215057 
	C198.695724,153.871674 198.665192,159.551926 198.147202,165.176498 
	C197.462738,172.608810 193.355286,178.184357 185.948166,179.052994 
	C174.507874,180.394562 162.918045,180.460892 151.014755,181.087936 
	C151.014755,153.856964 151.014755,127.888344 151.003159,101.032623 
M315.994019,149.499939 
	C316.048035,155.495667 315.874817,161.503662 316.197632,167.484879 
	C317.264618,187.252777 327.803558,199.962952 346.973724,204.941208 
	C360.596039,208.478745 374.418549,208.011932 388.174561,206.455795 
	C398.380554,205.301270 408.478973,203.195755 418.431824,201.545914 
	C418.431824,179.162491 418.431824,157.744217 418.431824,136.389130 
	C409.551453,136.389130 401.007233,136.389130 392.194763,136.389130 
	C392.194763,138.602707 392.194763,140.417542 392.194794,142.232376 
	C392.194885,153.726593 392.290588,165.222626 392.073151,176.712738 
	C392.046204,178.137695 390.435547,180.687714 389.422424,180.758224 
	C380.474731,181.380981 371.447510,182.288605 362.538788,181.692413 
	C350.670593,180.898193 344.245819,173.408875 344.159515,161.535995 
	C344.015411,141.713715 344.011902,121.888771 344.162231,102.066566 
	C344.253754,89.998489 350.497589,82.461082 362.508850,82.051613 
	C375.413696,81.611694 388.382477,82.872025 401.315186,83.546570 
	C404.542908,83.714928 407.739319,84.483498 411.170593,85.010025 
	C412.085602,77.891815 412.772247,71.267029 413.851379,64.706787 
	C414.376251,61.515984 413.482452,60.336464 410.301605,59.711555 
	C391.538727,56.025421 372.662506,54.508583 353.683044,57.241318 
	C332.863922,60.238926 321.000427,70.284676 317.352783,87.640968 
	C316.402252,92.163834 316.099762,96.887352 316.054077,101.524185 
	C315.899658,117.181458 315.994476,132.841187 315.994019,149.499939 
M568.500000,57.806286 
	C550.421143,57.806286 532.342285,57.806286 514.056396,57.806286 
	C514.056396,92.136780 514.056396,125.764908 514.056396,157.637222 
	C547.055664,124.718964 580.732239,91.125076 614.133240,57.806053 
	C599.770752,57.806053 584.635376,57.806053 568.500000,57.806286 
M449.226440,185.499496 
	C449.226440,191.938278 449.226440,198.377060 449.226440,204.717163 
	C458.927643,204.717163 467.990723,204.717163 477.027161,204.717163 
	C477.027161,155.725555 477.027161,107.132088 477.027161,58.364090 
	C467.734833,58.364090 458.695587,58.364090 449.226532,58.364090 
	C449.226532,100.614166 449.226532,142.556961 449.226440,185.499496 
M285.275208,78.500214 
	C285.275208,71.764030 285.275208,65.027847 285.275208,58.458710 
	C275.554657,58.458710 266.679504,58.458710 257.744324,58.458710 
	C257.744324,107.439873 257.744324,156.014359 257.744324,204.739212 
	C266.995270,204.739212 276.041351,204.739212 285.275299,204.739212 
	C285.275299,162.747986 285.275299,121.124084 285.275208,78.500214 
M494.888092,188.628632 
	C489.397919,190.330765 486.957977,193.453339 487.415314,198.192123 
	C487.840851,202.601089 490.861603,205.734207 495.032410,206.092545 
	C499.906189,206.511276 503.810364,203.276428 504.308533,198.406616 
	C504.869354,192.925156 501.901947,189.558273 494.888092,188.628632 
z"/>
<path fill="#84C55C" opacity="1.000000" stroke="none" 
	d="
M912.915039,333.000000 
	C912.957458,363.327118 912.779175,393.156830 913.129211,422.980347 
	C913.323608,439.539093 915.590332,455.847046 922.802917,471.072784 
	C930.153809,486.590546 942.042297,496.378693 959.140686,499.140198 
	C973.877991,501.520325 988.394348,500.951965 1001.920532,493.688110 
	C1017.320618,485.417908 1024.589478,471.312988 1028.949829,455.242432 
	C1032.779907,441.126404 1033.340210,426.669952 1033.334595,412.152161 
	C1033.314087,358.495819 1033.326172,304.839478 1033.326050,251.183151 
	C1033.326050,249.707001 1033.325928,248.230835 1033.325928,246.374161 
	C1050.178711,246.374161 1066.716431,246.374161 1083.688354,246.374161 
	C1083.779541,248.101349 1083.938477,249.710144 1083.938721,251.318970 
	C1083.947021,307.308167 1084.226685,363.299561 1083.796509,419.285492 
	C1083.621826,442.013550 1080.050537,464.403259 1071.535034,485.705719 
	C1058.854736,517.427002 1035.626709,536.690186 1002.170288,543.283264 
	C979.654480,547.720276 957.040649,547.525757 934.830872,541.524536 
	C900.453003,532.235413 879.656677,508.963593 869.087036,475.725494 
	C862.976196,456.508881 860.723755,436.716919 860.721313,416.623199 
	C860.714722,362.800232 860.718140,308.977264 860.717529,255.154282 
	C860.717529,252.354950 860.717468,249.555618 860.717468,246.373138 
	C877.975708,246.373138 895.048828,246.373138 912.915100,246.373138 
	C912.915100,275.009186 912.915100,303.754608 912.915039,333.000000 
z"/>
<path fill="#84C55C" opacity="1.000000" stroke="none" 
	d="
M201.499817,486.579742 
	C193.069092,503.239410 184.732376,519.530029 176.622986,535.932983 
	C174.769867,539.681274 172.494415,541.076050 168.175934,540.996826 
	C151.724884,540.694946 135.264984,540.875061 118.198135,540.875061 
	C124.925797,528.600769 131.319656,516.848633 137.793228,505.140656 
	C158.657455,467.405945 179.592239,429.710052 200.297897,391.888611 
	C201.224960,390.195221 200.915802,387.017395 199.934662,385.207367 
	C183.432541,354.764435 166.737518,324.426086 150.072784,294.071350 
	C141.740967,278.894958 133.381561,263.733673 125.048462,248.557968 
	C124.747902,248.010635 124.594223,247.382645 124.192131,246.313934 
	C125.952866,246.194946 127.359734,246.018768 128.766800,246.017197 
	C144.931000,245.999161 161.097580,246.154938 177.257736,245.899246 
	C181.016769,245.839767 182.873779,247.110321 184.457138,250.321945 
	C200.800354,283.471558 217.256668,316.565460 233.699753,349.665802 
	C234.786316,351.853088 236.021667,353.966461 237.750259,357.150146 
	C238.972092,354.805664 239.746475,353.457123 240.397095,352.051300 
	C256.264435,317.765320 272.091461,283.460602 288.071228,249.227173 
	C288.731934,247.811707 290.789124,246.146408 292.215759,246.127716 
	C309.043549,245.907211 325.875122,245.975311 342.705719,245.988571 
	C343.301636,245.989044 343.897369,246.208176 344.999451,246.424973 
	C337.394531,260.507721 329.988953,274.233795 322.571838,287.953674 
	C304.681274,321.047058 286.870331,354.184174 268.774506,387.164948 
	C266.718292,390.912506 268.021942,393.309021 269.659363,396.228363 
	C295.959442,443.118622 322.240021,490.019836 348.515320,536.924011 
	C349.060669,537.897461 349.490448,538.935669 350.211182,540.437683 
	C348.525421,540.612793 347.291626,540.850525 346.057404,540.852661 
	C329.559814,540.881104 313.061737,540.813354 296.565033,540.937866 
	C293.566162,540.960571 291.891724,540.209534 290.419250,537.304932 
	C271.825989,500.627350 253.052994,464.040894 234.319275,427.434601 
	C233.590210,426.010010 232.794998,424.619263 231.695557,422.596191 
	C221.464157,444.291656 211.570221,465.271545 201.499817,486.579742 
z"/>
<path fill="#84C55C" opacity="1.000000" stroke="none" 
	d="
M462.486084,542.598816 
	C416.351288,531.131714 386.559937,502.097046 371.662598,458.230164 
	C357.607941,416.844574 357.620239,374.685486 371.037598,333.035248 
	C382.634033,297.037354 404.803619,269.227020 439.503418,253.023758 
	C485.713135,231.445892 540.446472,236.906494 578.395325,274.658722 
	C581.208740,277.457520 581.071106,279.028137 578.584229,281.912659 
	C570.223572,291.610199 562.194641,301.593781 553.732971,311.838165 
	C551.282410,309.738586 549.002380,307.899414 546.848511,305.922668 
	C510.303223,272.382568 452.341248,282.451782 428.830231,330.022247 
	C417.608459,352.727600 414.463043,376.892761 415.625580,401.879730 
	C416.476410,420.166748 419.721191,437.874420 427.204498,454.727936 
	C450.496521,507.185089 511.050507,512.036499 546.832825,481.845825 
	C551.013428,478.318573 555.004333,474.566589 559.590637,470.464996 
	C568.875244,481.381195 578.066895,492.188110 587.448425,503.218292 
	C573.185303,519.733521 556.426453,531.867432 536.249878,539.100098 
	C512.179504,547.728638 487.650604,547.773010 462.486084,542.598816 
z"/>
<path fill="#84C55C" opacity="1.000000" stroke="none" 
	d="
M727.823242,540.875000 
	C712.545898,540.873657 697.745239,540.873657 682.297241,540.873657 
	C682.297241,457.295288 682.297241,374.099274 682.297241,290.247314 
	C679.709045,290.247314 677.764893,290.247009 675.820740,290.247375 
	C651.328430,290.251709 626.835449,290.170532 602.344360,290.346222 
	C598.336365,290.374939 596.808228,289.517609 596.904541,285.170319 
	C597.188049,272.373962 597.005737,259.567322 597.005737,246.378418 
	C671.278198,246.378418 745.152405,246.378418 819.827698,246.378418 
	C819.827698,249.132599 819.827759,251.890900 819.827759,254.649216 
	C819.827759,264.812714 819.617249,274.982605 819.926941,285.136658 
	C820.058228,289.440186 818.570496,290.374054 814.530273,290.345673 
	C789.872559,290.172607 765.212952,290.258759 740.554016,290.258453 
	C738.774719,290.258423 736.995483,290.258453 734.659485,290.258453 
	C734.659485,294.048462 734.659485,297.178162 734.659485,300.307861 
	C734.659485,378.450104 734.600830,456.592529 734.789490,534.734314 
	C734.802246,540.023743 733.216248,541.724731 727.823242,540.875000 
z"/>
<path fill="#4F5156" opacity="1.000000" stroke="none" 
	d="
M151.008957,101.476173 
	C151.014755,127.888344 151.014755,153.856964 151.014755,181.087936 
	C162.918045,180.460892 174.507874,180.394562 185.948166,179.052994 
	C193.355286,178.184357 197.462738,172.608810 198.147202,165.176498 
	C198.665192,159.551926 198.695724,153.871674 198.725510,148.215057 
	C198.800095,134.052322 198.766602,119.888924 198.747437,105.725838 
	C198.724823,88.999893 192.591888,82.919327 175.692749,82.891953 
	C160.030060,82.866585 144.367279,82.887871 128.704544,82.888588 
	C127.060699,82.888664 125.416862,82.888603 123.415154,82.888603 
	C123.415154,74.665421 123.415154,66.759232 123.415154,58.344528 
	C124.726051,58.255768 126.147346,58.077606 127.568878,58.075768 
	C144.564575,58.053757 161.579056,57.584187 178.548187,58.254566 
	C187.068054,58.591160 195.872208,59.951382 203.901505,62.721764 
	C219.164124,67.987877 226.365906,80.084991 226.625290,95.824501 
	C227.020599,119.811897 226.859802,143.811859 226.667999,167.804337 
	C226.538284,184.028580 216.982834,196.783859 201.339676,201.810944 
	C196.619797,203.327713 191.610626,204.700912 186.712952,204.776443 
	C165.738800,205.099930 144.756790,204.914322 123.341125,204.914322 
	C123.246834,203.437332 123.076637,202.003723 123.075485,200.569962 
	C123.056236,176.576019 122.969894,152.581268 123.187698,128.589310 
	C123.210213,126.110298 124.480148,123.094582 126.182518,121.272926 
	C133.896683,113.018250 141.973877,105.102829 150.634781,96.342690 
	C150.812332,98.603157 150.907745,99.817894 151.008957,101.476173 
z"/>
<path fill="#4F5156" opacity="1.000000" stroke="none" 
	d="
M315.994019,148.999954 
	C315.994476,132.841187 315.899658,117.181458 316.054077,101.524185 
	C316.099762,96.887352 316.402252,92.163834 317.352783,87.640968 
	C321.000427,70.284676 332.863922,60.238926 353.683044,57.241318 
	C372.662506,54.508583 391.538727,56.025421 410.301605,59.711555 
	C413.482452,60.336464 414.376251,61.515984 413.851379,64.706787 
	C412.772247,71.267029 412.085602,77.891815 411.170593,85.010025 
	C407.739319,84.483498 404.542908,83.714928 401.315186,83.546570 
	C388.382477,82.872025 375.413696,81.611694 362.508850,82.051613 
	C350.497589,82.461082 344.253754,89.998489 344.162231,102.066566 
	C344.011902,121.888771 344.015411,141.713715 344.159515,161.535995 
	C344.245819,173.408875 350.670593,180.898193 362.538788,181.692413 
	C371.447510,182.288605 380.474731,181.380981 389.422424,180.758224 
	C390.435547,180.687714 392.046204,178.137695 392.073151,176.712738 
	C392.290588,165.222626 392.194885,153.726593 392.194794,142.232376 
	C392.194763,140.417542 392.194763,138.602707 392.194763,136.389130 
	C401.007233,136.389130 409.551453,136.389130 418.431824,136.389130 
	C418.431824,157.744217 418.431824,179.162491 418.431824,201.545914 
	C408.478973,203.195755 398.380554,205.301270 388.174561,206.455795 
	C374.418549,208.011932 360.596039,208.478745 346.973724,204.941208 
	C327.803558,199.962952 317.264618,187.252777 316.197632,167.484879 
	C315.874817,161.503662 316.048035,155.495667 315.994019,148.999954 
z"/>
<path fill="#84C55C" opacity="1.000000" stroke="none" 
	d="
M569.000000,57.806168 
	C584.635376,57.806053 599.770752,57.806053 614.133240,57.806053 
	C580.732239,91.125076 547.055664,124.718964 514.056396,157.637222 
	C514.056396,125.764908 514.056396,92.136780 514.056396,57.806286 
	C532.342285,57.806286 550.421143,57.806286 569.000000,57.806168 
z"/>
<path fill="#4F5256" opacity="1.000000" stroke="none" 
	d="
M449.226501,184.999634 
	C449.226532,142.556961 449.226532,100.614166 449.226532,58.364090 
	C458.695587,58.364090 467.734833,58.364090 477.027161,58.364090 
	C477.027161,107.132088 477.027161,155.725555 477.027161,204.717163 
	C467.990723,204.717163 458.927643,204.717163 449.226440,204.717163 
	C449.226440,198.377060 449.226440,191.938278 449.226501,184.999634 
z"/>
<path fill="#4D4F54" opacity="1.000000" stroke="none" 
	d="
M285.275269,79.000198 
	C285.275299,121.124084 285.275299,162.747986 285.275299,204.739212 
	C276.041351,204.739212 266.995270,204.739212 257.744324,204.739212 
	C257.744324,156.014359 257.744324,107.439873 257.744324,58.458710 
	C266.679504,58.458710 275.554657,58.458710 285.275208,58.458710 
	C285.275208,65.027847 285.275208,71.764030 285.275269,79.000198 
z"/>
<path fill="#67676A" opacity="1.000000" stroke="none" 
	d="
M495.257874,188.592804 
	C501.901947,189.558273 504.869354,192.925156 504.308533,198.406616 
	C503.810364,203.276428 499.906189,206.511276 495.032410,206.092545 
	C490.861603,205.734207 487.840851,202.601089 487.415314,198.192123 
	C486.957977,193.453339 489.397919,190.330765 495.257874,188.592804 
M492.400635,191.548691 
	C488.822296,195.706833 488.355164,199.645737 491.508942,202.373535 
	C494.259735,204.752762 497.331940,205.361755 500.768433,201.748047 
	C500.759369,198.815414 501.694183,195.333420 500.416931,193.138885 
	C499.532104,191.618622 495.597992,191.873093 492.400635,191.548691 
z"/>
<path fill="#E1E1E3" opacity="1.000000" stroke="none" 
	d="
M500.092529,202.108353 
	C497.331940,205.361755 494.259735,204.752762 491.508942,202.373535 
	C488.355164,199.645737 488.822296,195.706833 492.714050,191.703033 
	C493.011139,192.205536 492.994751,192.553711 492.907806,193.345444 
	C492.837219,196.354538 492.837219,198.920044 492.837219,202.798035 
	C494.184662,200.759186 494.792969,199.838745 495.254852,199.139847 
	C497.011505,200.190475 498.433350,201.040848 499.927460,201.931366 
	C499.999756,201.971481 500.092529,202.108353 500.092529,202.108353 
z"/>
<path fill="#ECEDEE" opacity="1.000000" stroke="none" 
	d="
M492.978394,192.901871 
	C492.994751,192.553711 493.011139,192.205536 493.026917,191.595978 
	C495.597992,191.873093 499.532104,191.618622 500.416931,193.138885 
	C501.694183,195.333420 500.759369,198.815414 500.430481,201.928192 
	C500.092529,202.108353 499.999756,201.971481 499.843140,201.582611 
	C499.364166,200.287811 498.544037,199.201202 498.797028,198.504044 
	C501.122528,192.096252 496.902985,192.688705 492.978394,192.901871 
z"/>
<path fill="#6B6B6E" opacity="1.000000" stroke="none" 
	d="
M492.907806,193.345444 
	C496.902985,192.688705 501.122528,192.096252 498.797028,198.504044 
	C498.544037,199.201202 499.364166,200.287811 499.770844,201.542496 
	C498.433350,201.040848 497.011505,200.190475 495.254852,199.139847 
	C494.792969,199.838745 494.184662,200.759186 492.837219,202.798035 
	C492.837219,198.920044 492.837219,196.354538 492.907806,193.345444 
z"/>
</svg>